<?xml version="1.0" encoding="UTF-8"?>
<!-- Generator: visioncortex VTracer 0.6.3 -->
<svg version="1.1" xmlns="http://www.w3.org/2000/svg" width="1024" height="1024">
<path d="M0 0 C0.78 0.04 1.57 0.08 2.38 0.12 C3.5 2.44 3.5 2.44 4.38 5.12 C3.38 6.61 3.38 6.61 2.38 8.12 C-0.75 8.31 -0.75 8.31 -3.62 8.12 C-4.25 5.25 -4.25 5.25 -4.62 2.12 C-2.62 0.12 -2.62 0.12 0 0 Z M-0.62 2.12 C-0.62 3.44 -0.62 4.76 -0.62 6.12 C0.03 5.8 0.7 5.46 1.38 5.12 C1.04 4.13 0.72 3.14 0.38 2.12 C0.04 2.12 -0.28 2.12 -0.62 2.12 Z " fill="#000000" transform="translate(516.625,278.875)"/>
<path d="M0 0 C2.31 1.61 4.5 3.24 6.69 5 C7.31 5.5 7.93 6 8.58 6.51 C29.2 23.21 43.63 46.03 51.38 71.31 C51.63 72.12 51.88 72.94 52.14 73.77 C53.8 79.49 54.59 85.06 55 91 C53.35 88.53 52.49 86.84 51.55 84.11 C51.29 83.35 51.02 82.58 50.74 81.79 C50.46 80.98 50.17 80.16 49.88 79.31 C41.57 56.25 29.1 34.95 11.81 17.5 C11.24 16.92 10.67 16.35 10.09 15.76 C6.31 12.05 2.37 8.98 -2 6 C-32.09 22.19 -48.74 59.09 -59 90 C-59.33 90 -59.66 90 -60 90 C-59.65 76.81 -54.4 63.88 -49 52 C-48.57 51.04 -48.14 50.08 -47.7 49.09 C-41.85 36.62 -33.5 25.9 -24 16 C-22.8 14.72 -22.8 14.72 -21.57 13.41 C-6.5 -2.22 -6.5 -2.22 0 0 Z " fill="#000000" transform="translate(519,297)"/>
<path d="M0 0 C3.55 1.5 6.2 3.79 9.04 6.33 C9.65 6.87 10.26 7.4 10.89 7.96 C12.79 9.65 14.67 11.36 16.54 13.08 C17.11 13.6 17.68 14.12 18.27 14.66 C43.99 38.59 59.7 70.77 69.54 104.08 C69.82 105.01 70.1 105.95 70.39 106.91 C77.8 132.47 80.85 159.58 82.54 186.08 C82.63 187.35 82.71 188.63 82.79 189.94 C83.45 200.5 83.68 211.01 83.64 221.59 C83.64 223.17 83.64 224.76 83.64 226.35 C83.63 230.46 83.62 234.58 83.61 238.69 C83.6 242.91 83.6 247.14 83.59 251.36 C83.58 259.6 83.56 267.84 83.54 276.08 C97.31 280 111.1 283.43 125.12 286.33 C128.23 286.97 131.35 287.63 134.46 288.28 C138.91 289.21 143.35 290.15 147.8 291.08 C200.16 302.04 252.3 313.58 303.54 329.08 C305.01 329.5 306.47 329.93 307.94 330.35 C309.4 330.79 310.87 331.23 312.34 331.66 C313.03 331.86 313.72 332.06 314.43 332.26 C318.11 333.37 319.33 333.76 321.54 337.08 C316.73 336.49 312.32 335.52 307.7 334.07 C306.32 333.64 304.95 333.22 303.57 332.79 C302.84 332.56 302.11 332.34 301.35 332.1 C259.92 319.33 217.63 309.73 175.25 300.72 C162.7 298.05 150.15 295.35 137.61 292.64 C133.79 291.81 129.98 290.99 126.17 290.18 C95.48 283.63 95.48 283.63 81.54 279.08 C81.54 282.71 81.54 286.34 81.54 290.08 C83.19 290.41 84.84 290.74 86.54 291.08 C89.29 292.04 92.01 293.03 94.73 294.07 C95.52 294.37 96.32 294.67 97.15 294.98 C98.86 295.63 100.58 296.28 102.29 296.93 C105.94 298.32 109.59 299.69 113.24 301.06 C115.99 302.1 118.74 303.14 121.48 304.17 C142.71 312.17 164.06 319.69 185.54 326.97 C237.93 344.72 290.36 362.67 340.54 386.08 C340.54 386.74 340.54 387.4 340.54 388.08 C336.35 387.42 332.85 386.02 328.98 384.3 C327.64 383.7 326.29 383.11 324.95 382.52 C324.24 382.21 323.52 381.89 322.79 381.57 C286.97 365.8 250.03 352.99 213.03 340.33 C202.25 336.64 191.49 332.9 180.73 329.14 C179.85 328.83 178.96 328.52 178.05 328.2 C116.26 306.63 116.26 306.63 89.92 296.15 C86.79 294.91 83.81 293.9 80.54 293.08 C80.54 296.05 80.54 299.02 80.54 302.08 C81.19 302.32 81.84 302.56 82.52 302.8 C86.46 304.47 90.2 306.45 93.98 308.45 C94.81 308.89 95.64 309.33 96.5 309.78 C104.64 314.1 112.73 318.52 120.81 322.95 C126.67 326.15 132.54 329.34 138.42 332.52 C139.41 333.05 140.41 333.59 141.44 334.15 C144.47 335.79 147.51 337.44 150.54 339.08 C163.12 345.89 175.7 352.7 188.26 359.56 C192.98 362.14 197.71 364.71 202.45 367.26 C213.25 373.08 224 378.98 234.67 385.05 C239.94 388.05 245.22 391.02 250.53 393.95 C251.13 394.28 251.72 394.61 252.33 394.94 C255.21 396.53 258.09 398.12 260.97 399.7 C269.69 404.51 278.26 409.55 286.54 415.08 C286.21 416.07 285.88 417.06 285.54 418.08 C285.01 417.76 284.47 417.44 283.92 417.11 C264.56 405.54 244.93 394.51 225.12 383.75 C219.97 380.95 214.83 378.14 209.71 375.3 C209.12 374.97 208.52 374.65 207.91 374.31 C207.32 373.98 206.72 373.65 206.1 373.3 C192.88 365.98 179.59 358.79 166.26 351.67 C159.92 348.29 153.6 344.88 147.29 341.45 C146.32 340.92 145.34 340.39 144.33 339.85 C142.38 338.79 140.42 337.73 138.47 336.67 C133.54 333.99 128.6 331.31 123.67 328.64 C122.7 328.11 121.73 327.59 120.72 327.04 C115.3 324.11 109.87 321.17 104.43 318.25 C103.54 317.78 103.54 317.78 102.63 317.29 C99.76 315.74 96.88 314.2 94.01 312.66 C92.97 312.1 91.94 311.55 90.88 310.98 C89.96 310.49 89.05 310 88.12 309.5 C85.55 308.08 83.04 306.6 80.54 305.08 C80.09 308.17 79.84 310.09 80.54 313.08 C82.92 315.89 85.86 317.75 88.92 319.77 C89.78 320.36 90.64 320.96 91.52 321.58 C93.31 322.82 95.11 324.06 96.91 325.28 C100.84 327.97 104.69 330.77 108.54 333.58 C110.03 334.65 111.52 335.73 113.02 336.8 C120.1 341.92 127.12 347.12 134.14 352.31 C136.55 354.08 138.96 355.85 141.37 357.62 C149.03 363.24 156.65 368.9 164.17 374.7 C170.34 379.46 176.63 384.02 183.01 388.48 C190.95 394.03 198.72 399.81 206.51 405.58 C212.15 409.75 217.84 413.86 223.54 417.96 C233.79 425.34 243.99 432.8 254.15 440.31 C258.11 443.24 262.08 446.16 266.04 449.08 C267.63 450.24 269.21 451.41 270.79 452.58 C271.58 453.16 272.36 453.73 273.17 454.33 C275.54 456.08 277.92 457.83 280.29 459.58 C281.08 460.16 281.86 460.73 282.67 461.33 C284.25 462.49 285.83 463.66 287.4 464.82 C291.43 467.79 295.47 470.76 299.5 473.72 C307.49 479.58 315.44 485.48 323.27 491.56 C327.88 495.12 332.57 498.59 337.25 502.06 C337.9 502.54 338.54 503.02 339.21 503.51 C339.78 503.94 340.35 504.36 340.94 504.79 C342.6 506.12 344.07 507.55 345.54 509.08 C345.21 509.74 344.88 510.4 344.54 511.08 C336.31 505.33 328.26 499.38 320.29 493.27 C312.95 487.63 305.53 482.12 298 476.73 C292.47 472.76 287.02 468.7 281.59 464.6 C276.56 460.81 271.47 457.12 266.36 453.45 C261.16 449.72 256.03 445.95 250.98 442.02 C245.52 437.77 239.92 433.78 234.26 429.82 C228 425.43 221.84 420.91 215.7 416.36 C210.34 412.4 204.95 408.47 199.54 404.58 C190.96 398.4 182.45 392.14 173.95 385.85 C171.53 384.07 169.11 382.28 166.68 380.5 C158.6 374.56 150.55 368.59 142.54 362.55 C136.76 358.21 130.91 354 125.04 349.79 C120.66 346.64 116.36 343.41 112.11 340.08 C105.98 335.31 99.61 330.95 93.16 326.63 C88.74 323.65 84.57 320.58 80.54 317.08 C79.4 320.9 78.94 324.12 79.54 328.08 C82.65 332.42 86.48 335.68 90.54 339.08 C91.84 340.22 93.13 341.37 94.42 342.52 C95.05 343.06 95.68 343.6 96.34 344.16 C100.94 348.16 105.37 352.36 109.85 356.51 C111.48 358.02 113.11 359.52 114.74 361.03 C120.55 366.38 126.34 371.75 132.11 377.14 C141.03 385.48 150.01 393.74 159.11 401.89 C160.77 403.38 162.42 404.88 164.07 406.39 C169.37 411.23 174.8 415.77 180.54 420.08 C180.21 421.07 179.88 422.06 179.54 423.08 C171.75 416.54 164.07 409.92 156.54 403.08 C154.92 401.62 153.29 400.16 151.67 398.7 C147.42 394.88 143.21 391.03 139 387.16 C135.89 384.3 132.75 381.46 129.61 378.64 C122.36 372.14 115.24 365.51 108.11 358.89 C102.99 354.15 97.87 349.44 92.6 344.88 C88.19 341.01 83.87 337.03 79.54 333.08 C77.86 342.95 76.8 352.82 75.85 362.79 C74.66 375.29 73.44 387.79 71.92 400.27 C71.81 401.21 71.7 402.16 71.58 403.14 C70.32 413.17 70.32 413.17 67.11 416.62 C61.16 421.21 61.16 421.21 56.28 421.19 C54.96 421.19 54.96 421.19 53.61 421.19 C52.66 421.19 51.7 421.18 50.72 421.18 C49.75 421.17 48.78 421.17 47.77 421.17 C44.65 421.17 41.54 421.15 38.42 421.14 C36.31 421.14 34.2 421.13 32.09 421.13 C26.9 421.12 21.72 421.1 16.54 421.08 C16.58 423.01 16.58 423.01 16.62 424.99 C16.64 426.71 16.66 428.42 16.68 430.14 C16.69 430.99 16.71 431.84 16.73 432.71 C16.79 440.02 15.68 445.86 11.54 452.08 C7.17 455.91 1.98 455.46 -3.61 455.3 C-7.8 454.97 -11.13 454.61 -13.97 451.33 C-18.57 444.36 -19.75 436.82 -19.57 428.66 C-19.56 427.92 -19.55 427.19 -19.55 426.44 C-19.52 424.65 -19.49 422.86 -19.46 421.08 C-20.73 421.09 -22 421.11 -23.31 421.13 C-28.04 421.18 -32.77 421.21 -37.5 421.24 C-39.54 421.26 -41.59 421.28 -43.63 421.3 C-46.58 421.34 -49.52 421.36 -52.46 421.37 C-53.37 421.39 -54.28 421.4 -55.22 421.42 C-61.68 421.42 -65.88 420.51 -70.73 415.93 C-73.02 412.14 -73.51 408.78 -74.04 404.43 C-74.16 403.57 -74.27 402.7 -74.4 401.81 C-75.79 391.18 -76.82 380.51 -77.82 369.85 C-78.15 366.36 -78.49 362.87 -78.83 359.38 C-79.04 357.13 -79.26 354.88 -79.47 352.63 C-79.57 351.6 -79.67 350.57 -79.77 349.51 C-80.31 343.67 -80.55 337.94 -80.46 332.08 C-85.01 335.97 -89.38 339.96 -93.58 344.23 C-95.38 346.01 -97.24 347.66 -99.16 349.31 C-103.45 353.04 -107.59 356.92 -111.71 360.83 C-118.57 367.31 -125.48 373.72 -132.46 380.08 C-133.47 381.01 -134.49 381.94 -135.51 382.88 C-140.99 387.92 -146.49 392.93 -152.03 397.9 C-153.66 399.37 -155.29 400.84 -156.91 402.32 C-162.13 407.07 -167.48 411.62 -172.97 416.06 C-175.02 417.72 -177.02 419.42 -179.02 421.14 C-181.46 423.08 -181.46 423.08 -183.46 423.08 C-181.95 419.31 -179.82 417.54 -176.64 415.08 C-172.18 411.53 -167.94 407.84 -163.77 403.95 C-160.37 400.78 -156.98 397.62 -153.46 394.58 C-148.23 390.05 -143.19 385.32 -138.12 380.62 C-135.55 378.24 -132.97 375.88 -130.39 373.52 C-129.9 373.06 -129.41 372.61 -128.9 372.14 C-126.47 369.92 -124.04 367.69 -121.6 365.47 C-115.75 360.13 -109.93 354.74 -104.14 349.33 C-103.49 348.71 -102.83 348.1 -102.15 347.47 C-98.96 344.47 -95.82 341.45 -92.75 338.32 C-90.33 335.87 -87.86 333.86 -85.02 331.89 C-82.27 329.58 -81.54 328.57 -80.95 324.97 C-80.96 321.96 -81.1 319.06 -81.46 316.08 C-86.54 318.85 -91.12 321.93 -95.71 325.45 C-97.12 326.53 -98.53 327.6 -99.95 328.67 C-100.68 329.23 -101.42 329.78 -102.18 330.36 C-114.39 339.58 -126.81 348.53 -139.22 357.47 C-142.97 360.17 -146.71 362.87 -150.46 365.58 C-151.96 366.66 -153.46 367.74 -154.96 368.83 C-156.07 369.63 -156.07 369.63 -157.21 370.45 C-159.46 372.08 -161.71 373.7 -163.96 375.33 C-164.7 375.86 -165.44 376.4 -166.21 376.95 C-167.71 378.04 -169.21 379.12 -170.7 380.2 C-174.47 382.92 -178.23 385.64 -181.99 388.36 C-189.98 394.15 -198 399.89 -206.06 405.56 C-211.22 409.19 -216.35 412.87 -221.46 416.58 C-227.26 420.78 -233.09 424.95 -238.96 429.08 C-244.88 433.25 -250.78 437.46 -256.64 441.7 C-257.78 442.53 -257.78 442.53 -258.94 443.37 C-259.69 443.9 -260.43 444.44 -261.2 445 C-271.42 452.39 -281.72 459.67 -292.07 466.9 C-301.43 473.45 -310.72 480.1 -319.97 486.79 C-326.85 491.77 -333.73 496.73 -340.64 501.64 C-341.67 502.37 -341.67 502.37 -342.71 503.12 C-346.84 506.04 -351.03 508.64 -355.46 511.08 C-355.46 510.09 -355.46 509.1 -355.46 508.08 C-354.09 506.75 -354.09 506.75 -352.15 505.4 C-351.43 504.89 -350.71 504.38 -349.97 503.85 C-348.79 503.04 -348.79 503.04 -347.58 502.2 C-345.92 501.03 -344.26 499.86 -342.59 498.68 C-341.74 498.08 -340.88 497.49 -340 496.87 C-336.1 494.13 -332.25 491.32 -328.39 488.52 C-319.1 481.8 -309.73 475.19 -300.35 468.6 C-290.76 461.85 -281.23 455.04 -271.73 448.17 C-262.93 441.8 -254.08 435.52 -245.21 429.27 C-238.5 424.54 -231.83 419.75 -225.19 414.93 C-220.14 411.28 -215.06 407.66 -209.96 404.08 C-203.26 399.37 -196.61 394.59 -189.98 389.79 C-185.48 386.54 -180.98 383.3 -176.46 380.08 C-168.87 374.67 -161.32 369.21 -153.77 363.75 C-150.75 361.57 -147.72 359.38 -144.7 357.2 C-143.2 356.12 -141.7 355.03 -140.21 353.95 C-136.47 351.25 -132.73 348.56 -128.99 345.86 C-118.82 338.54 -108.7 331.16 -98.64 323.69 C-96.58 322.17 -94.5 320.69 -92.41 319.22 C-91.21 318.36 -90.02 317.5 -88.83 316.64 C-87.81 315.92 -86.79 315.2 -85.73 314.46 C-82.82 311.42 -82.67 309.2 -82.46 305.08 C-93.01 310.21 -103.38 315.68 -113.71 321.24 C-122.21 325.82 -130.75 330.33 -139.33 334.77 C-147.01 338.73 -154.64 342.78 -162.21 346.95 C-170.72 351.64 -179.32 356.14 -187.96 360.58 C-199.31 366.42 -210.55 372.43 -221.73 378.59 C-224.58 380.15 -227.44 381.69 -230.3 383.22 C-242.66 389.84 -254.83 396.72 -266.91 403.83 C-271.8 406.7 -276.71 409.54 -281.64 412.33 C-282.27 412.69 -282.9 413.05 -283.55 413.42 C-286.78 415.23 -289.98 416.8 -293.46 418.08 C-292.01 414.42 -290.35 413.09 -286.96 411.15 C-286.02 410.61 -285.09 410.07 -284.12 409.51 C-282.59 408.65 -282.59 408.65 -281.02 407.77 C-279.42 406.85 -279.42 406.85 -277.78 405.91 C-274.35 403.95 -270.9 402.01 -267.46 400.08 C-266.36 399.46 -265.26 398.84 -264.13 398.2 C-248.2 389.23 -232.12 380.56 -215.99 371.96 C-212.44 370.07 -208.89 368.16 -205.35 366.26 C-193.1 359.67 -180.82 353.17 -168.47 346.78 C-160.84 342.83 -153.29 338.74 -145.76 334.59 C-137.87 330.27 -129.89 326.14 -121.89 322.03 C-113.42 317.65 -105.13 313.01 -96.89 308.22 C-92.49 305.68 -88.4 303.41 -83.46 302.08 C-83.79 298.78 -84.12 295.48 -84.46 292.08 C-86.52 292.9 -86.52 292.9 -88.63 293.74 C-102.92 299.4 -117.32 304.69 -131.83 309.77 C-132.97 310.16 -134.1 310.56 -135.27 310.97 C-154.81 317.83 -174.4 324.51 -194.02 331.14 C-195.04 331.49 -195.04 331.49 -196.09 331.84 C-208.71 336.1 -221.33 340.36 -233.95 344.59 C-270.14 356.74 -305.79 369.34 -340.68 384.86 C-348.04 388.08 -348.04 388.08 -351.46 388.08 C-351.46 387.42 -351.46 386.76 -351.46 386.08 C-299.31 361.13 -243.64 344.32 -188.97 325.89 C-168.06 318.84 -147.21 311.63 -126.46 304.14 C-125.49 303.79 -124.52 303.44 -123.53 303.09 C-110.39 298.35 -97.39 293.34 -84.46 288.08 C-84.46 285.11 -84.46 282.14 -84.46 279.08 C-85.54 279.38 -86.62 279.68 -87.74 279.99 C-100.04 283.35 -112.42 286.05 -124.92 288.56 C-128.45 289.27 -131.97 289.98 -135.49 290.7 C-144.24 292.48 -153 294.25 -161.76 296.02 C-201 303.94 -240.14 312.11 -278.77 322.64 C-279.59 322.86 -280.41 323.08 -281.26 323.31 C-293.9 326.72 -306.43 330.4 -318.88 334.44 C-319.97 334.79 -321.05 335.14 -322.16 335.5 C-323.1 335.8 -324.03 336.11 -324.99 336.43 C-327.46 337.08 -327.46 337.08 -331.46 337.08 C-331.13 336.09 -330.8 335.1 -330.46 334.08 C-328.22 333.06 -328.22 333.06 -325.14 332.12 C-323.95 331.76 -322.76 331.4 -321.54 331.02 C-320.18 330.62 -318.82 330.22 -317.46 329.83 C-316.76 329.62 -316.06 329.41 -315.33 329.2 C-300.12 324.68 -284.79 320.59 -269.46 316.52 C-268.33 316.21 -267.2 315.91 -266.03 315.6 C-228.18 305.48 -189.7 298.01 -151.28 290.38 C-145.93 289.31 -140.57 288.24 -135.22 287.16 C-133.94 286.91 -133.94 286.91 -132.63 286.64 C-117.89 283.67 -103.27 280.3 -88.69 276.59 C-86.46 276.08 -86.46 276.08 -84.46 276.08 C-84.53 275.53 -84.6 274.98 -84.67 274.41 C-85.55 266.71 -85.64 259.05 -85.66 251.31 C-85.67 249.88 -85.67 248.44 -85.68 247.01 C-85.7 242.43 -85.71 237.85 -85.71 233.27 C-85.71 232.1 -85.71 232.1 -85.71 230.91 C-85.72 207.18 -85.35 183.66 -82.46 160.08 C-82.31 158.83 -82.17 157.58 -82.02 156.3 C-76.4 108.79 -62.4 61.7 -30.46 25.08 C-29.78 24.28 -29.1 23.48 -28.41 22.66 C-24.1 17.67 -19.58 13.23 -14.46 9.08 C-12.97 7.86 -12.97 7.86 -11.46 6.61 C-10.4 5.76 -9.33 4.92 -8.27 4.08 C-7.29 3.29 -6.3 2.51 -5.29 1.7 C-2.46 0.08 -2.46 0.08 0 0 Z M-8.96 11.45 C-9.59 12 -10.22 12.55 -10.87 13.11 C-55.42 52.15 -71.68 109.51 -77.71 166.58 C-77.79 167.36 -77.87 168.14 -77.96 168.95 C-79.66 185.19 -80.65 201.43 -80.52 217.77 C-80.52 218.87 -80.51 219.98 -80.51 221.12 C-80.49 223.77 -80.48 226.43 -80.46 229.08 C-79.99 228.67 -79.53 228.27 -79.06 227.85 C-78.13 227.04 -78.13 227.04 -77.19 226.22 C-76.58 225.69 -75.97 225.16 -75.35 224.62 C-71.46 221.45 -67.38 219.16 -62.46 218.08 C-62.39 217.11 -62.32 216.15 -62.25 215.16 C-60.26 188.14 -58.08 161.28 -51.96 134.83 C-51.67 133.6 -51.39 132.36 -51.09 131.1 C-46.2 110.88 -46.2 110.88 -38.46 106.08 C-35.85 105.06 -33.25 104.41 -30.52 103.83 C-29.84 103.67 -29.16 103.51 -28.47 103.34 C-7.77 98.58 18.96 98.18 38.53 107.31 C53.92 120.82 54.41 157.09 56.67 175.89 C56.76 176.62 56.85 177.34 56.94 178.09 C57.84 185.6 58.61 193.04 58.82 200.61 C58.5 211.55 58.5 211.55 63.16 220.73 C66.26 222.22 69.25 223.12 72.54 224.08 C74.66 225.93 75.94 227.75 77.54 230.08 C77.87 230.08 78.2 230.08 78.54 230.08 C78.66 218.97 78.33 207.92 77.73 196.83 C77.69 196 77.64 195.18 77.6 194.32 C74.82 142.98 67.1 86.21 35.73 43.69 C34.56 42.1 33.43 40.49 32.3 38.88 C27.36 32.1 21.83 26.09 15.92 20.14 C15.21 19.43 14.51 18.72 13.78 17.99 C3.21 6.32 3.21 6.32 -8.96 11.45 Z M-22.33 106.33 C-23.04 106.44 -23.74 106.55 -24.47 106.66 C-30.79 107.81 -37.2 110.07 -41.46 115.08 C-42.56 117.87 -43.52 120.59 -44.39 123.45 C-44.79 124.72 -44.79 124.72 -45.19 126.02 C-53.71 154.62 -57.95 187.26 -57.46 217.08 C-55.98 217.11 -54.5 217.12 -53.02 217.14 C-52.2 217.15 -51.37 217.16 -50.52 217.18 C-48.47 217.31 -48.47 217.31 -47.46 216.08 C-47.28 214.17 -47.18 212.25 -47.1 210.34 C-47.05 209.11 -46.99 207.88 -46.94 206.62 C-46.91 205.95 -46.88 205.29 -46.86 204.61 C-46.77 202.54 -46.68 200.46 -46.59 198.39 C-46.33 192.49 -46.08 186.59 -45.83 180.69 C-45.68 177.09 -45.53 173.48 -45.36 169.88 C-45.3 168.51 -45.25 167.14 -45.19 165.77 C-44.5 148.08 -44.5 148.08 -42.46 143.08 C-39.69 140.62 -36.92 139.33 -33.46 138.08 C-33.48 136.91 -33.5 135.74 -33.53 134.54 C-33.55 132.99 -33.56 131.44 -33.58 129.89 C-33.6 129.12 -33.62 128.35 -33.63 127.56 C-33.67 123.32 -33.64 119.84 -31.46 116.08 C-23.79 109.21 -10.52 110.77 -0.89 110.83 C0.34 110.82 1.58 110.81 2.85 110.8 C22.01 110.85 22.01 110.85 28.54 115.08 C30.42 117.9 30.82 120.28 30.96 123.62 C31 124.47 31.03 125.31 31.07 126.18 C31.11 127.06 31.14 127.93 31.17 128.83 C31.21 129.72 31.25 130.6 31.29 131.52 C31.38 133.71 31.46 135.89 31.54 138.08 C32.1 138.32 32.65 138.56 33.22 138.81 C33.95 139.15 34.67 139.48 35.42 139.83 C36.5 140.32 36.5 140.32 37.6 140.81 C40.02 142.39 40.5 143.38 41.54 146.08 C41.83 148.39 42.01 150.72 42.14 153.05 C42.18 153.74 42.22 154.44 42.26 155.15 C42.38 157.43 42.5 159.72 42.61 162 C42.7 163.59 42.79 165.17 42.87 166.76 C43.1 170.93 43.32 175.1 43.53 179.27 C43.76 183.52 43.99 187.78 44.22 192.04 C44.67 200.38 45.11 208.73 45.54 217.08 C48.84 217.08 52.14 217.08 55.54 217.08 C55.15 161.13 55.15 161.13 36.36 111.64 C19.7 102.39 -4.02 103.42 -22.33 106.33 Z M-28.46 118.08 C-30.11 121.39 -29.56 125.07 -29.52 128.7 C-29.52 129.5 -29.51 130.31 -29.51 131.13 C-29.49 133.11 -29.48 135.1 -29.46 137.08 C-28.59 137.01 -27.73 136.93 -26.84 136.86 C-8.74 135.53 9.46 135.57 27.54 137.08 C27.51 134.14 27.44 131.2 27.36 128.27 C27.35 127.43 27.34 126.6 27.34 125.74 C27.26 120.85 27.26 120.85 24.45 117.08 C10.98 112.45 -15.9 109.99 -28.46 118.08 Z M-39.46 146.08 C-40.24 150.63 -40.64 155.13 -40.85 159.75 C-40.91 161.05 -40.97 162.34 -41.03 163.68 C-41.09 165.04 -41.15 166.4 -41.21 167.76 C-41.27 169.01 -41.33 170.26 -41.39 171.55 C-41.6 176.21 -41.81 180.86 -42.02 185.52 C-42.49 195.93 -42.97 206.35 -43.46 217.08 C-15.74 217.08 11.98 217.08 40.54 217.08 C40.54 203.67 40.21 190.4 39.54 177.02 C39.41 174.54 39.3 172.06 39.2 169.57 C39.05 165.95 38.87 162.34 38.69 158.72 C38.65 157.61 38.61 156.5 38.57 155.35 C38.33 149.32 38.33 149.32 35.14 144.4 C32.32 142.96 30.05 142.32 26.92 141.89 C25.85 141.74 24.78 141.6 23.68 141.45 C22.65 141.33 21.61 141.2 20.54 141.08 C19.73 140.97 18.92 140.85 18.09 140.74 C4.62 139.15 -28.75 135.37 -39.46 146.08 Z M-76.46 232.08 C-83.16 242.12 -81.11 256.71 -79.46 268.08 C-77.81 268.41 -76.16 268.74 -74.46 269.08 C-74.45 268.2 -74.44 267.32 -74.43 266.42 C-74.38 263.14 -74.32 259.87 -74.25 256.59 C-74.22 255.18 -74.2 253.76 -74.19 252.35 C-74.16 250.31 -74.12 248.27 -74.07 246.23 C-74.05 245 -74.02 243.78 -74 242.51 C-73.14 237.08 -70.72 234.03 -66.39 230.77 C-62.6 228.58 -59.92 227.95 -55.62 227.94 C-54.62 227.93 -53.63 227.93 -52.6 227.92 C-51.51 227.92 -50.41 227.92 -49.29 227.92 C-47.56 227.91 -47.56 227.91 -45.8 227.9 C-41.98 227.89 -38.16 227.88 -34.34 227.88 C-32.36 227.87 -30.38 227.87 -28.4 227.86 C-22.89 227.85 -17.37 227.84 -11.85 227.84 C-4.72 227.83 2.41 227.82 9.54 227.79 C15.06 227.77 20.57 227.76 26.09 227.76 C29.38 227.75 32.67 227.75 35.96 227.73 C39.64 227.71 43.31 227.72 46.99 227.72 C48.62 227.71 48.62 227.71 50.28 227.69 C57.38 227.73 61.73 228.71 67.29 233.39 C71.14 237.98 71.8 242.48 71.74 248.35 C71.73 250.08 71.73 250.08 71.72 251.85 C71.69 253.63 71.69 253.63 71.67 255.45 C71.66 256.67 71.65 257.88 71.64 259.13 C71.62 262.11 71.58 265.1 71.54 268.08 C73.2 268.46 74.87 268.79 76.54 269.08 C79.28 266.34 77.88 258.32 77.92 254.64 C77.96 253.39 77.99 252.15 78.03 250.86 C78.11 242.89 77.31 236.65 72.54 230.08 C64.85 222.71 57.39 221.78 47.06 221.8 C45.92 221.8 44.77 221.79 43.58 221.79 C39.79 221.77 36 221.78 32.21 221.78 C29.57 221.77 26.93 221.77 24.29 221.76 C18.75 221.76 13.22 221.76 7.69 221.76 C1.31 221.77 -5.08 221.76 -11.46 221.73 C-17.61 221.72 -23.77 221.71 -29.92 221.72 C-32.53 221.72 -35.14 221.71 -37.76 221.7 C-41.41 221.69 -45.07 221.69 -48.72 221.71 C-49.79 221.7 -50.87 221.69 -51.98 221.68 C-62.05 221.75 -69.72 224.26 -76.46 232.08 Z M-58.46 233.08 C-60.88 268.28 -56.76 304.79 -53.65 339.84 C-53.52 341.34 -53.39 342.84 -53.26 344.34 C-52.88 348.67 -52.49 353.01 -52.08 357.33 C-51.9 359.28 -51.72 361.23 -51.55 363.17 C-51.43 364.32 -51.32 365.47 -51.2 366.66 C-51.11 367.66 -51.01 368.67 -50.91 369.7 C-50.65 372.26 -50.65 372.26 -48.46 374.08 C-45.44 374.27 -42.52 374.33 -39.51 374.31 C-38.58 374.31 -37.66 374.31 -36.7 374.31 C-33.63 374.3 -30.55 374.29 -27.48 374.27 C-25.35 374.27 -23.23 374.27 -21.1 374.26 C-15.49 374.26 -9.89 374.24 -4.28 374.22 C1.44 374.2 7.15 374.19 12.87 374.18 C24.1 374.15 35.32 374.12 46.54 374.08 C47.67 369.24 48.75 364.48 49.2 359.52 C49.29 358.52 49.38 357.52 49.48 356.49 C49.62 354.91 49.62 354.91 49.76 353.29 C49.86 352.17 49.97 351.05 50.07 349.9 C50.4 346.27 50.72 342.64 51.04 339.02 C51.21 337.15 51.21 337.15 51.38 335.25 C52.12 326.86 52.84 318.47 53.54 310.08 C53.62 309.21 53.69 308.34 53.77 307.45 C55.91 282.34 55.76 257.26 55.54 232.08 C52.57 232.08 49.6 232.08 46.54 232.08 C46.54 235.38 46.54 238.68 46.54 242.08 C41.92 242.08 37.3 242.08 32.54 242.08 C32.53 243.06 32.52 244.04 32.51 245.04 C32.47 248.68 32.41 252.32 32.34 255.96 C32.31 257.53 32.29 259.1 32.27 260.68 C32.25 262.94 32.2 265.2 32.15 267.47 C32.15 268.17 32.15 268.87 32.15 269.59 C32.05 272.79 31.83 274.7 29.86 277.26 C26.99 279.51 25.53 279.58 21.92 279.6 C20.79 279.61 19.66 279.62 18.5 279.63 C16.68 279.62 16.68 279.62 14.82 279.61 C13.57 279.61 12.32 279.62 11.04 279.62 C8.39 279.62 5.75 279.62 3.11 279.6 C-0.28 279.58 -3.66 279.59 -7.04 279.61 C-10.27 279.63 -13.51 279.62 -16.74 279.61 C-17.95 279.62 -19.17 279.63 -20.42 279.63 C-21.54 279.62 -22.67 279.61 -23.83 279.6 C-24.83 279.59 -25.82 279.59 -26.84 279.59 C-30.18 278.94 -31.37 277.72 -33.46 275.08 C-34.74 270.39 -34.54 265.65 -34.46 260.83 C-34.4 254.5 -34.66 248.37 -35.46 242.08 C-39.75 242.08 -44.04 242.08 -48.46 242.08 C-48.46 238.78 -48.46 235.48 -48.46 232.08 C-53.75 231.5 -53.75 231.5 -58.46 233.08 Z M-43.46 232.08 C-43.46 234.06 -43.46 236.04 -43.46 238.08 C-15.41 238.08 12.64 238.08 41.54 238.08 C41.54 236.1 41.54 234.12 41.54 232.08 C13.49 232.08 -14.56 232.08 -43.46 232.08 Z M-64.46 234.08 C-79.65 252.12 -67.42 304.92 -65.54 327.12 C-65.01 333.25 -64.45 339.39 -63.89 345.52 C-63.79 346.69 -63.68 347.86 -63.57 349.06 C-63.27 352.4 -62.96 355.74 -62.64 359.07 C-62.55 360.06 -62.46 361.04 -62.37 362.05 C-61.59 372.73 -61.59 372.73 -57.14 382.12 C-52.34 385.52 -46.18 384.6 -40.58 384.39 C-39.42 384.37 -38.25 384.35 -37.05 384.32 C-34.18 384.26 -31.32 384.18 -28.46 384.08 C-28.46 382.43 -28.46 380.78 -28.46 379.08 C-29.11 379.06 -29.76 379.05 -30.43 379.03 C-33.38 378.96 -36.32 378.86 -39.27 378.77 C-40.81 378.73 -40.81 378.73 -42.37 378.7 C-43.36 378.66 -44.34 378.63 -45.35 378.59 C-46.26 378.56 -47.16 378.54 -48.1 378.51 C-50.87 378 -51.74 377.27 -53.46 375.08 C-54.76 372.47 -54.82 370.24 -55.09 367.34 C-55.2 366.12 -55.32 364.91 -55.43 363.66 C-55.56 362.32 -55.68 360.97 -55.8 359.63 C-55.92 358.24 -56.05 356.85 -56.18 355.46 C-56.59 350.96 -56.99 346.46 -57.39 341.95 C-57.53 340.41 -57.67 338.87 -57.81 337.32 C-59.93 313.59 -61.66 289.89 -62.46 266.08 C-62.51 264.5 -62.57 262.92 -62.62 261.34 C-62.94 252.25 -63.22 243.17 -63.46 234.08 C-63.79 234.08 -64.12 234.08 -64.46 234.08 Z M60.54 235.08 C60.52 236.17 60.5 237.27 60.48 238.39 C59.88 270.76 58.33 302.88 55.54 335.14 C55.46 336.11 55.38 337.08 55.29 338.08 C54.81 343.57 54.31 349.05 53.78 354.53 C53.55 357.04 53.33 359.56 53.11 362.09 C52.97 363.62 52.82 365.16 52.67 366.7 C52.61 367.39 52.56 368.09 52.5 368.8 C52.17 371.96 51.67 373.91 49.78 376.5 C47.16 378.35 45.74 378.61 42.56 378.69 C41.16 378.74 41.16 378.74 39.73 378.79 C38.76 378.8 37.79 378.81 36.79 378.83 C35.81 378.86 34.83 378.89 33.81 378.92 C31.39 378.99 28.97 379.04 26.54 379.08 C26.54 380.73 26.54 382.38 26.54 384.08 C30.44 384.17 34.33 384.22 38.23 384.27 C39.33 384.29 40.44 384.32 41.57 384.34 C42.64 384.35 43.71 384.36 44.8 384.37 C45.78 384.39 46.76 384.4 47.77 384.42 C51.24 383.99 52.87 383.35 55.54 381.08 C58.45 375.13 59.23 369.37 59.82 362.83 C59.92 361.84 60.02 360.85 60.12 359.83 C60.44 356.58 60.74 353.33 61.04 350.08 C61.15 348.96 61.26 347.84 61.37 346.68 C63.58 323.38 65.2 300.05 66.41 276.67 C66.54 274.18 66.67 271.69 66.81 269.2 C67.04 264.97 67.23 260.74 67.42 256.52 C67.48 255.33 67.54 254.14 67.6 252.91 C67.82 246.84 67.79 242.33 64.54 237.08 C62.5 235.89 62.5 235.89 60.54 235.08 Z M-30.46 242.08 C-30.52 247.32 -30.58 252.56 -30.64 257.95 C-30.67 259.61 -30.7 261.26 -30.73 262.96 C-30.73 264.25 -30.74 265.55 -30.75 266.88 C-30.77 267.56 -30.78 268.24 -30.8 268.95 C-30.83 271.12 -30.83 271.12 -30.46 274.08 C-27.16 276.28 -26.14 276.33 -22.3 276.35 C-20.72 276.37 -20.72 276.37 -19.11 276.38 C-17.41 276.38 -17.41 276.38 -15.68 276.38 C-14.51 276.38 -13.35 276.39 -12.15 276.39 C-9.68 276.4 -7.22 276.4 -4.75 276.39 C-0.97 276.39 2.81 276.41 6.59 276.44 C8.98 276.44 11.37 276.44 13.76 276.44 C15.46 276.46 15.46 276.46 17.2 276.47 C18.25 276.46 19.3 276.46 20.38 276.45 C21.31 276.45 22.24 276.45 23.19 276.45 C25.59 276.25 25.59 276.25 27.34 274.75 C29.32 272 28.88 269.33 28.84 266 C28.83 264.75 28.82 263.5 28.81 262.21 C28.77 259.83 28.77 259.83 28.73 257.39 C28.67 252.34 28.61 247.28 28.54 242.08 C9.07 242.08 -10.4 242.08 -30.46 242.08 Z M-78.46 280.08 C-78.71 283.16 -78.71 283.16 -78.46 286.08 C-76.81 285.42 -75.16 284.76 -73.46 284.08 C-73.46 282.1 -73.46 280.12 -73.46 278.08 C-75.78 277.89 -75.78 277.89 -78.46 280.08 Z M70.54 278.08 C70.21 280.95 70.21 280.95 70.54 284.08 C72.31 286.03 72.31 286.03 74.54 287.08 C75.2 287.08 75.86 287.08 76.54 287.08 C76.54 284.77 76.54 282.46 76.54 280.08 C74.56 279.42 72.58 278.76 70.54 278.08 Z M-74.46 287.08 C-76.57 287.97 -76.57 287.97 -78.46 289.08 C-78.46 291.72 -78.46 294.36 -78.46 297.08 C-75.21 295.99 -75.21 295.99 -72.46 294.08 C-72.42 292.08 -72.41 290.08 -72.46 288.08 C-73.12 287.75 -73.78 287.42 -74.46 287.08 Z M70.54 288.08 C70.13 291.45 70.13 291.45 70.54 295.08 C72.92 297.09 72.92 297.09 75.54 298.08 C75.54 295.44 75.54 292.8 75.54 290.08 C73.07 289.09 73.07 289.09 70.54 288.08 Z M-75.52 299.14 C-77.86 301.06 -77.86 301.06 -77.71 304.77 C-77.62 305.86 -77.54 306.95 -77.46 308.08 C-75.48 306.76 -73.5 305.44 -71.46 304.08 C-71.79 302.1 -72.12 300.12 -72.46 298.08 C-73.7 298 -73.7 298 -75.52 299.14 Z M69.54 299.08 C69.12 301.91 69.12 301.91 69.54 305.08 C71.92 307.48 71.92 307.48 74.54 309.08 C74.87 306.77 75.2 304.46 75.54 302.08 C72.87 299.74 72.87 299.74 69.54 299.08 Z M-75.08 310.2 C-77.84 312.88 -77.84 312.88 -77.27 316.39 C-77 317.28 -76.73 318.16 -76.46 319.08 C-74.81 318.75 -73.16 318.42 -71.46 318.08 C-71.46 314.78 -71.46 311.48 -71.46 308.08 C-72.89 307.97 -72.89 307.97 -75.08 310.2 Z M69.54 309.08 C69.21 312.05 68.88 315.02 68.54 318.08 C71.51 318.57 71.51 318.57 74.54 319.08 C74.96 316.25 74.96 316.25 74.54 313.08 C72.16 310.67 72.16 310.67 69.54 309.08 Z M-71.46 328.08 C-73.44 329.07 -73.44 329.07 -75.46 330.08 C-74.86 342.92 -73.69 355.68 -72.36 368.47 C-72.02 371.7 -71.69 374.94 -71.36 378.17 C-70.84 383.25 -70.3 388.32 -69.75 393.39 C-69.48 395.86 -69.23 398.33 -68.99 400.8 C-68.84 402.15 -68.7 403.5 -68.55 404.85 C-68.43 405.98 -68.31 407.1 -68.2 408.26 C-67.32 411.61 -66.11 412.92 -63.46 415.08 C-61.15 416.23 -59.85 416.2 -57.28 416.19 C-56.42 416.19 -55.56 416.19 -54.67 416.19 C-53.74 416.19 -52.81 416.18 -51.86 416.18 C-50.9 416.17 -49.95 416.17 -48.97 416.17 C-45.93 416.17 -42.88 416.15 -39.83 416.14 C-37.77 416.14 -35.71 416.13 -33.64 416.13 C-28.58 416.12 -23.52 416.1 -18.46 416.08 C-18.27 415.27 -18.09 414.47 -17.9 413.64 C-17.64 412.57 -17.39 411.5 -17.12 410.41 C-16.88 409.35 -16.63 408.3 -16.38 407.22 C-15.05 402.69 -12.93 399.09 -10.46 395.08 C-3.86 395.08 2.74 395.08 9.54 395.08 C10.2 397.06 10.86 399.04 11.54 401.08 C12.56 403.89 13.6 406.69 14.64 409.49 C15.4 411.68 16 413.83 16.54 416.08 C22.58 416.18 28.61 416.25 34.64 416.3 C36.69 416.32 38.74 416.35 40.79 416.38 C43.75 416.43 46.7 416.45 49.65 416.47 C50.56 416.49 51.48 416.51 52.42 416.53 C56.48 416.53 58.96 416.39 62.59 414.45 C65.07 411.44 65.34 409.58 65.7 405.71 C65.76 405.07 65.83 404.42 65.9 403.76 C66.05 402.32 66.18 400.88 66.32 399.44 C66.64 396.02 67.06 392.61 67.47 389.2 C67.92 385.4 68.35 381.61 68.78 377.81 C69.11 374.88 69.44 371.96 69.78 369.04 C72.01 350.11 72.01 350.11 72.54 331.08 C70.89 330.42 69.24 329.76 67.54 329.08 C67.46 329.8 67.38 330.53 67.3 331.27 C67.19 332.29 67.07 333.3 66.96 334.35 C66.83 335.48 66.71 336.61 66.58 337.77 C66.3 340.24 66.03 342.7 65.75 345.17 C65.14 350.65 64.53 356.12 64 361.6 C63.88 362.8 63.88 362.8 63.76 364.02 C63.62 365.46 63.49 366.9 63.37 368.34 C62.59 376.02 60.61 382.08 54.54 387.08 C51.13 388.22 48.51 388.19 44.91 388.18 C42.96 388.17 42.96 388.17 40.97 388.17 C39.6 388.16 38.23 388.15 36.86 388.14 C35.47 388.14 34.09 388.13 32.71 388.13 C29.32 388.12 25.93 388.1 22.54 388.08 C21.55 383.62 21.55 383.62 20.54 379.08 C6.02 379.08 -8.5 379.08 -23.46 379.08 C-24.12 381.72 -24.78 384.36 -25.46 387.08 C-28.21 389.83 -36.44 388.36 -40.14 388.39 C-41.43 388.42 -42.71 388.45 -44.03 388.48 C-53.43 388.54 -53.43 388.54 -58.1 386.43 C-64.59 379.95 -65.3 374.38 -66.08 365.52 C-66.2 364.33 -66.32 363.14 -66.44 361.91 C-67.01 356.18 -67.51 350.44 -68.02 344.7 C-68.1 343.74 -68.19 342.77 -68.28 341.78 C-68.44 339.97 -68.58 338.16 -68.72 336.35 C-68.94 331.74 -68.94 331.74 -71.46 328.08 Z M-7.46 399.08 C-8.27 400.68 -9.08 402.29 -9.89 403.89 C-10.35 404.78 -10.8 405.68 -11.27 406.6 C-13.98 412.24 -13.68 417.43 -13.71 423.58 C-13.73 424.64 -13.75 425.69 -13.77 426.79 C-13.77 427.8 -13.78 428.81 -13.79 429.86 C-13.79 430.79 -13.8 431.72 -13.81 432.67 C-13.39 435.51 -12.71 436.36 -10.46 438.08 C-4.81 440.09 2.11 439.97 7.61 437.64 C10.36 436.36 10.36 436.36 11.54 435.08 C12.85 422.77 12.04 411.25 6.54 400.08 C5.43 398.74 5.43 398.74 2.6 398.98 C1.41 398.99 0.21 399 -1.02 399.02 C-2.22 399.02 -3.41 399.03 -4.65 399.04 C-6.04 399.06 -6.04 399.06 -7.46 399.08 Z M-11.46 443.08 C-10.47 445.06 -9.48 447.04 -8.46 449.08 C-6 449.16 -3.54 449.22 -1.08 449.27 C-0.03 449.3 -0.03 449.3 1.04 449.34 C3.31 449.41 3.31 449.41 6.54 449.08 C8.82 446.26 8.82 446.26 8.54 443.08 C1.94 443.08 -4.66 443.08 -11.46 443.08 Z " fill="#000000" transform="translate(517.45703125,262.921875)"/>
<path d="M0 0 C1.02 0 2.05 0 3.1 0 C4.26 0 5.42 -0 6.61 -0.01 C7.86 0 9.12 0.01 10.41 0.02 C12.34 0.02 12.34 0.02 14.3 0.02 C17.01 0.02 19.73 0.03 22.44 0.04 C25.93 0.06 29.41 0.06 32.9 0.06 C36.22 0.06 39.53 0.07 42.85 0.08 C44.74 0.08 44.74 0.08 46.66 0.08 C47.81 0.09 48.97 0.1 50.16 0.1 C51.69 0.11 51.69 0.11 53.26 0.11 C55.56 0.25 55.56 0.25 56.56 1.25 C56.65 3.1 56.67 4.96 56.66 6.81 C56.66 7.94 56.66 9.06 56.65 10.22 C56.64 12 56.64 12 56.63 13.81 C56.62 15 56.62 16.19 56.61 17.41 C56.6 20.36 56.58 23.3 56.56 26.25 C53.96 27.55 52.05 27.38 49.14 27.39 C48 27.4 46.87 27.41 45.7 27.41 C44.47 27.41 43.24 27.41 41.97 27.42 C40.71 27.42 39.46 27.42 38.16 27.43 C35.5 27.43 32.83 27.43 30.17 27.43 C26.75 27.43 23.34 27.45 19.92 27.46 C16.67 27.48 13.41 27.48 10.16 27.48 C8.31 27.49 8.31 27.49 6.43 27.5 C4.73 27.49 4.73 27.49 2.99 27.49 C1.99 27.49 0.99 27.49 -0.04 27.49 C-2.44 27.25 -2.44 27.25 -4.44 25.25 C-4.69 22.94 -4.69 22.94 -4.7 20.09 C-4.7 19.07 -4.71 18.05 -4.71 16.99 C-4.7 15.39 -4.7 15.39 -4.69 13.75 C-4.69 12.68 -4.7 11.6 -4.71 10.5 C-4.71 9.48 -4.7 8.46 -4.7 7.4 C-4.7 6.46 -4.7 5.52 -4.69 4.55 C-4.32 1.21 -3.32 0.34 0 0 Z M0.56 5.25 C0.56 10.86 0.56 16.47 0.56 22.25 C17.72 22.25 34.88 22.25 52.56 22.25 C52.56 16.64 52.56 11.03 52.56 5.25 C35.4 5.25 18.24 5.25 0.56 5.25 Z " fill="#000000" transform="translate(490.43568420410156,428.7527618408203)"/>
<path d="M0 0 C0.8 -0 1.6 -0 2.43 -0 C3.34 -0.01 4.25 -0.02 5.19 -0.03 C6.17 -0.02 7.15 -0.01 8.16 0.01 C9.17 0 10.18 0 11.22 0 C13.36 0 15.49 0.01 17.63 0.03 C20.9 0.06 24.17 0.06 27.44 0.04 C29.52 0.05 31.59 0.06 33.66 0.07 C35.14 0.06 35.14 0.06 36.64 0.06 C37.55 0.07 38.46 0.08 39.4 0.1 C40.2 0.1 41 0.11 41.83 0.11 C44.43 0.6 45.32 1.42 46.91 3.5 C47.3 5.91 47.3 5.91 47.31 8.72 C47.32 10.24 47.32 10.24 47.32 11.79 C47.31 12.85 47.3 13.91 47.29 15 C47.3 16.06 47.31 17.12 47.32 18.21 C47.32 19.22 47.32 20.24 47.31 21.28 C47.31 22.21 47.3 23.14 47.3 24.1 C46.83 27 46.2 27.71 43.91 29.5 C41.86 29.88 41.86 29.88 39.49 29.89 C38.6 29.9 37.71 29.91 36.79 29.92 C35.83 29.91 34.87 29.91 33.88 29.9 C32.89 29.9 31.91 29.91 30.89 29.91 C28.8 29.91 26.71 29.9 24.63 29.89 C21.43 29.88 18.23 29.89 15.03 29.91 C13 29.91 10.97 29.91 8.94 29.9 C7.51 29.91 7.51 29.91 6.04 29.92 C4.7 29.9 4.7 29.9 3.34 29.89 C2.55 29.89 1.77 29.88 0.96 29.88 C-1.61 29.4 -2.47 28.52 -4.09 26.5 C-5.9 22.87 -5.31 18.62 -5.34 14.63 C-5.36 13.71 -5.38 12.8 -5.4 11.86 C-5.4 10.98 -5.41 10.1 -5.42 9.2 C-5.42 8.39 -5.43 7.59 -5.44 6.76 C-4.9 3.3 -3.53 0.85 0 0 Z M-1.09 5.5 C-1.19 8.49 -1.23 11.45 -1.21 14.44 C-1.22 15.28 -1.22 16.11 -1.22 16.98 C-1.22 17.78 -1.22 18.58 -1.22 19.4 C-1.22 20.14 -1.22 20.88 -1.22 21.64 C-1.2 23.59 -1.2 23.59 -0.09 25.5 C5.88 25.53 11.84 25.54 17.8 25.56 C19.83 25.56 21.86 25.57 23.89 25.58 C26.8 25.59 29.72 25.59 32.63 25.6 C33.54 25.6 34.46 25.61 35.4 25.61 C37.57 25.61 39.74 25.56 41.91 25.5 C43.13 24.51 43.13 24.51 43.03 22.55 C43.02 21.72 43.02 20.89 43.01 20.03 C43.01 19.13 43 18.23 43 17.3 C42.99 16.36 42.98 15.41 42.98 14.44 C42.97 13.49 42.97 12.54 42.96 11.56 C42.95 9.21 42.93 6.85 42.91 4.5 C36.81 4.48 30.7 4.46 24.6 4.45 C22.52 4.44 20.44 4.43 18.36 4.43 C15.38 4.41 12.4 4.41 9.42 4.4 C8.48 4.4 7.55 4.39 6.58 4.39 C5.72 4.39 4.86 4.39 3.97 4.39 C2.83 4.38 2.83 4.38 1.67 4.38 C-0.12 4.31 -0.12 4.31 -1.09 5.5 Z " fill="#000000" transform="translate(495.0869140625,560.4987945556641)"/>
<path d="M0 0 C0.26 0.59 0.52 1.18 0.78 1.79 C2.92 5.67 6.02 8.11 10 10 C13.47 10.2 16.62 9.76 20 9 C18.68 10.65 17.36 12.3 16 14 C16.97 14.61 16.97 14.61 17.97 15.24 C18.8 15.78 19.64 16.32 20.5 16.88 C21.34 17.41 22.17 17.94 23.03 18.49 C24.01 19.24 24.01 19.24 25 20 C25 20.66 25 21.32 25 22 C27.44 23.68 27.44 23.68 31 24 C34.62 22.03 37.8 19.59 41 17 C41.66 17.33 42.32 17.66 43 18 C42.58 18.51 42.16 19.02 41.72 19.54 C37.25 25.11 37.25 25.11 36 32 C36.52 35.04 37.2 38.02 38 41 C33.55 37.03 32.53 34.89 30 29 C24.39 29 18.78 29 13 29 C13.66 31.31 14.32 33.62 15 36 C14.55 35.59 14.1 35.18 13.64 34.76 C8.07 30.1 3.15 28.76 -4 28 C-4.33 28.99 -4.66 29.98 -5 31 C-8.13 29.96 -9.2 28.79 -11.41 26.46 C-13.33 24.7 -15.38 23.35 -17.56 21.94 C-20.73 19.88 -23.58 17.95 -26 15 C-26 14.34 -26 13.68 -26 13 C-25.34 12.67 -24.68 12.34 -24 12 C-24.33 10.68 -24.66 9.36 -25 8 C-20.36 6.38 -16.3 5.88 -11.38 5.69 C-5.96 5.43 -5.96 5.43 -1.69 2.44 C-1.13 1.63 -0.57 0.83 0 0 Z M-18 11 C-17.34 11.66 -16.68 12.32 -16 13 C-16 12.34 -16 11.68 -16 11 C-16.66 11 -17.32 11 -18 11 Z " fill="#000000" transform="translate(867,589)"/>
<path d="M0 0 C1.88 0.31 1.88 0.31 4 1 C4.66 1.99 5.32 2.98 6 4 C8.88 4.51 8.88 4.51 12.19 4.56 C17.14 4.83 21.33 5.37 26 7 C25.67 8.32 25.34 9.64 25 11 C25.99 11.66 26.98 12.32 28 13 C23.64 17.49 19.28 21.25 13.94 24.5 C10.88 26.37 8.4 28.3 6 31 C5.5 29.51 5.5 29.51 5 28 C2.89 28.23 0.79 28.48 -1.31 28.75 C-2.48 28.89 -3.66 29.03 -4.86 29.17 C-8.43 30.11 -9.1 30.97 -11 34 C-11.66 34 -12.32 34 -13 34 C-12.67 32.35 -12.34 30.7 -12 29 C-17.61 28.34 -23.22 27.68 -29 27 C-29.41 28.42 -29.83 29.85 -30.25 31.31 C-31.37 35.19 -32.59 36.82 -36 39 C-35.86 38.24 -35.72 37.48 -35.57 36.69 C-34.73 30.78 -34.41 26.93 -37.88 21.88 C-38.9 20.57 -39.94 19.28 -41 18 C-41.33 17.34 -41.66 16.68 -42 16 C-38.26 17 -35.38 18.3 -32.29 20.58 C-31.67 21.03 -31.05 21.49 -30.41 21.95 C-29.94 22.3 -29.48 22.64 -29 23 C-26.68 21.38 -24.37 19.75 -22.06 18.12 C-21.4 17.66 -20.74 17.2 -20.06 16.73 C-16.49 14.37 -16.49 14.37 -14 11 C-15.32 10.34 -16.64 9.68 -18 9 C-18 8.67 -18 8.34 -18 8 C-13.36 7.87 -13.36 7.87 -11.09 8.68 C-8.92 9.23 -8.92 9.23 -6.89 7.89 C-6.21 7.35 -5.52 6.81 -4.81 6.25 C-4.12 5.72 -3.42 5.19 -2.71 4.64 C-0.74 3.01 -0.74 3.01 0 0 Z M17 10 C17.66 10.66 18.32 11.32 19 12 C19 11.34 19 10.68 19 10 C18.34 10 17.68 10 17 10 Z " fill="#000000" transform="translate(156,590)"/>
<path d="M0 0 C0.69 0.66 1.39 1.31 2.1 1.99 C5.57 4.4 7.21 4.4 11.38 4.19 C16.11 4.03 20.36 4.14 25 5 C25 6.32 25 7.64 25 9 C25.99 9.33 26.98 9.66 28 10 C26.65 14.16 24.93 16.35 21.62 19.19 C20.47 20.2 20.47 20.2 19.29 21.23 C17 23 17 23 14.85 24.04 C11.9 25.57 10.69 28.22 9 31 C8.5 29.02 8.5 29.02 8 27 C5.91 27.54 3.83 28.11 1.75 28.69 C0.59 29 -0.57 29.31 -1.77 29.64 C-5.41 31.17 -6.82 32.75 -9 36 C-9.66 35.67 -10.32 35.34 -11 35 C-10.67 33.68 -10.34 32.36 -10 31 C-15.28 31 -20.56 31 -26 31 C-27.42 35.2 -27.42 35.2 -28.83 39.4 C-30 42 -30 42 -33 44 C-32.93 43.14 -32.86 42.29 -32.79 41.4 C-32.26 33.48 -32.26 33.48 -35.88 26.75 C-37.56 25.1 -38.89 24.06 -41 23 C-40.67 22.34 -40.34 21.68 -40 21 C-38.58 21.62 -37.17 22.25 -35.75 22.88 C-34.96 23.22 -34.17 23.57 -33.36 23.93 C-31.21 24.9 -29.1 25.93 -27 27 C-26.67 26.34 -26.34 25.68 -26 25 C-25.01 25 -24.02 25 -23 25 C-22.73 24.36 -22.46 23.72 -22.19 23.06 C-21 21 -21 21 -18 20 C-18 19.34 -18 18.68 -18 18 C-17.01 17.34 -16.02 16.68 -15 16 C-15 15.34 -15 14.68 -15 14 C-15.99 13.34 -16.98 12.68 -18 12 C-18 11.34 -18 10.68 -18 10 C-17.42 10.13 -16.84 10.26 -16.24 10.39 C-11.67 11.2 -9.72 11.44 -5.62 8.94 C-3.06 6.07 -1.48 3.54 0 0 Z M17 9 C17 9.66 17 10.32 17 11 C17.66 11 18.32 11 19 11 C19 10.34 19 9.68 19 9 C18.34 9 17.68 9 17 9 Z " fill="#000000" transform="translate(136,643)"/>
<path d="M0 0 C0.99 0 1.98 0 3 0 C3.39 0.91 3.78 1.82 4.19 2.75 C6.21 6.37 7.33 8.05 11 10 C14.4 10.03 17.65 9.6 21 9 C21 9.66 21 10.32 21 11 C19.02 11.99 19.02 11.99 17 13 C17 13.66 17 14.32 17 15 C18.69 16.59 20.45 18.1 22.25 19.56 C23.71 20.77 23.71 20.77 25.2 22 C28.34 24.29 28.34 24.29 32 25 C34.01 23.69 36.01 22.35 38 21 C41.38 20.25 41.38 20.25 44 20 C43.26 20.72 42.51 21.44 41.75 22.19 C36.71 26.97 36.71 26.97 34.61 33.33 C34.66 34.48 34.7 35.63 34.75 36.81 C34.8 38.55 34.8 38.55 34.86 40.33 C34.91 41.21 34.95 42.09 35 43 C30.95 39.5 29.85 34.91 28 30 C22.72 29.67 17.44 29.34 12 29 C12.5 31.97 12.5 31.97 13 35 C9.84 33.63 9.01 33.01 7 30 C4.13 28.76 4.13 28.76 0.88 27.81 C-0.22 27.47 -1.32 27.12 -2.45 26.77 C-3.29 26.52 -4.13 26.26 -5 26 C-5.33 26.99 -5.66 27.98 -6 29 C-6.66 29 -7.32 29 -8 29 C-8.44 28.24 -8.87 27.49 -9.32 26.71 C-11.2 23.67 -12.86 22.5 -15.88 20.62 C-20.48 17.56 -23.13 14.7 -26 10 C-24.68 9.67 -23.36 9.34 -22 9 C-22.66 7.68 -23.32 6.36 -24 5 C-17.65 3.31 -12.17 2.87 -5.6 3.22 C-2.51 2.96 -1.99 2.23 0 0 Z M-17 8 C-17 8.66 -17 9.32 -17 10 C-16.34 10 -15.68 10 -15 10 C-15 9.34 -15 8.68 -15 8 C-15.66 8 -16.32 8 -17 8 Z " fill="#000000" transform="translate(886,644)"/>
<path d="M0 0 C1.45 0.03 1.45 0.03 2.94 0.06 C3.56 2.94 3.56 2.94 3.94 6.06 C1.94 8.06 1.94 8.06 -0.62 8.25 C-3.06 8.06 -3.06 8.06 -4.06 7.06 C-4.19 4.06 -4.19 4.06 -4.06 1.06 C-3.06 0.06 -3.06 0.06 0 0 Z M-1.06 2.06 C-1.06 3.05 -1.06 4.04 -1.06 5.06 C-0.4 5.39 0.26 5.72 0.94 6.06 C0.94 4.74 0.94 3.42 0.94 2.06 C0.28 2.06 -0.38 2.06 -1.06 2.06 Z " fill="#000000" transform="translate(460.0625,663.9375)"/>
<path d="M0 0 C2.56 0.19 2.56 0.19 4.56 2.19 C4.19 4.81 4.19 4.81 3.56 7.19 C1.19 7.81 1.19 7.81 -1.44 8.19 C-3.44 6.19 -3.44 6.19 -3.62 3.62 C-3.37 0.35 -3.28 0.25 0 0 Z M-0.44 2.19 C-0.44 3.51 -0.44 4.83 -0.44 6.19 C0.22 6.19 0.88 6.19 1.56 6.19 C1.56 4.87 1.56 3.55 1.56 2.19 C0.9 2.19 0.24 2.19 -0.44 2.19 Z " fill="#000000" transform="translate(572.4375,663.8125)"/>
<path d="M0 0 C0.93 0.56 1.86 1.11 2.81 1.69 C7.38 3.68 10.71 2.25 15.27 0.77 C18.99 -0.28 22.16 -0.22 26 0 C26 1.32 26 2.64 26 4 C26.99 4 27.98 4 29 4 C28 10.57 24.64 13.82 20.13 18.55 C17.48 21.59 16.24 24.2 15 28 C14.34 28 13.68 28 13 28 C12.5 27.01 12.5 27.01 12 26 C10 26.65 8 27.32 6 28 C4.7 28.34 4.7 28.34 3.38 28.69 C-0.21 30.67 -1.19 33.38 -3 37 C-3.99 36.5 -3.99 36.5 -5 36 C-4.67 34.35 -4.34 32.7 -4 31 C-9.28 32.32 -14.56 33.64 -20 35 C-20.45 37.12 -20.91 39.25 -21.38 41.44 C-21.85 43.64 -22.37 45.84 -23 48 C-23.99 48.5 -23.99 48.5 -25 49 C-25.03 48.14 -25.06 47.29 -25.09 46.4 C-25.59 39.33 -25.59 39.33 -29.36 33.58 C-31.85 31.88 -34.31 30.36 -37 29 C-31.78 27.12 -27.11 29.48 -22 31 C-18.37 26.05 -14.74 21.1 -11 16 C-13.47 15.5 -13.47 15.5 -16 15 C-16 14.34 -16 13.68 -16 13 C-15.42 13.02 -14.84 13.04 -14.24 13.06 C-10.52 12.96 -7.95 12.85 -5.1 10.29 C-2.58 6.97 -0.82 4.13 0 0 Z M19 4 C19 7 19 7 19 7 Z " fill="#000000" transform="translate(194,679)"/>
<path d="M0 0 C6.16 -0.22 11.04 0.28 17 2 C20.15 1.77 20.15 1.77 23 1 C24.18 0.72 24.18 0.72 25.38 0.44 C25.91 0.29 26.45 0.15 27 0 C27.43 1.07 27.87 2.14 28.31 3.25 C29.55 6.18 31.04 8.48 33 11 C33 11.66 33 12.32 33 13 C36.3 13 39.6 13 43 13 C42.67 13.66 42.34 14.32 42 15 C41.01 15.33 40.02 15.66 39 16 C40.4 20.1 42.37 22.98 45.12 26.31 C46.4 27.86 47.68 29.41 49 31 C53.62 30.01 58.24 29.02 63 28 C63 28.66 63 29.32 63 30 C61.32 31.22 61.32 31.22 59.12 32.5 C56.75 33.9 54.96 35.04 53 37 C52.32 39.89 52.32 39.89 51.88 43.12 C51.71 44.22 51.54 45.32 51.37 46.45 C51.19 47.71 51.19 47.71 51 49 C50.01 48.5 50.01 48.5 49 48 C48.37 45.86 48.37 45.86 47.88 43.19 C47.62 41.88 47.62 41.88 47.37 40.54 C47 38 47 38 47 34 C46.44 33.95 45.89 33.9 45.31 33.85 C40.03 33.33 35.12 32.4 30 31 C30.5 33.97 30.5 33.97 31 37 C30.34 37 29.68 37 29 37 C26 31.25 26 31.25 26 29 C25.11 28.9 24.23 28.79 23.31 28.69 C19.94 27.99 17.83 26.91 15 25 C14.01 25.99 13.02 26.98 12 28 C11.48 26.82 10.97 25.65 10.44 24.44 C8.84 21.2 7.14 18.96 4.5 16.5 C0.79 13.03 -1.09 9.7 -3 5 C-2.67 4.34 -2.34 3.68 -2 3 C-1.34 3.66 -0.68 4.32 0 5 C0 3.35 0 1.7 0 0 Z M7 4 C8 6 8 6 8 6 Z " fill="#000000" transform="translate(808,679)"/>
<path d="M0 0 C1.27 0.53 1.27 0.53 2.56 1.06 C7.02 2.28 10.51 1.7 14.91 0.46 C17.25 -0.06 19.36 -0.1 21.75 -0.06 C22.55 -0.05 23.35 -0.04 24.17 -0.04 C24.78 -0.02 25.38 -0.01 26 0 C26.5 1.98 26.5 1.98 27 4 C27.66 4 28.32 4 29 4 C28.3 9.96 25.22 13.94 20.94 17.94 C17.77 20.96 16.47 23.9 15 28 C14.34 28 13.68 28 13 28 C13 27.01 13 26.02 13 25 C12.23 25.36 11.46 25.72 10.66 26.09 C9.66 26.56 8.66 27.02 7.62 27.5 C6.63 27.96 5.63 28.43 4.6 28.91 C2 30 2 30 0 30 C-0.19 30.9 -0.19 30.9 -0.38 31.81 C-1 34 -1 34 -3 37 C-3.99 36.5 -3.99 36.5 -5 36 C-4.67 34.35 -4.34 32.7 -4 31 C-9.28 32.32 -14.56 33.64 -20 35 C-20.31 36.94 -20.62 38.88 -20.94 40.88 C-21.88 46.75 -21.88 46.75 -23 49 C-23.66 49 -24.32 49 -25 49 C-25.03 48.14 -25.06 47.29 -25.09 46.4 C-25.58 39.33 -25.58 39.33 -29.36 33.61 C-31.85 31.94 -34.38 30.45 -37 29 C-37 28.67 -37 28.34 -37 28 C-31.76 28.55 -27.03 29.43 -22 31 C-20.73 29.44 -19.46 27.88 -18.19 26.31 C-17.48 25.44 -16.77 24.57 -16.04 23.68 C-14.15 21.2 -12.54 18.7 -11 16 C-12.65 15.34 -14.3 14.68 -16 14 C-16 13.67 -16 13.34 -16 13 C-15.42 13.02 -14.84 13.04 -14.24 13.06 C-10.52 12.96 -7.95 12.85 -5.1 10.29 C-2.58 6.97 -0.82 4.13 0 0 Z M19 4 C18.67 4.66 18.34 5.32 18 6 C18.99 5.67 19.98 5.34 21 5 C20.34 4.67 19.68 4.34 19 4 Z " fill="#000000" transform="translate(300,681)"/>
<path d="M0 0 C3.04 0.03 5.69 0.4 8.62 1.19 C14.12 2.63 17.27 2.55 22.44 0.19 C22.85 1.24 23.26 2.29 23.69 3.38 C25.22 6.85 26.56 9.61 29.44 12.19 C32.44 12.89 35.36 13.12 38.44 13.19 C37.06 14.69 37.06 14.69 35.44 16.19 C34.78 16.19 34.12 16.19 33.44 16.19 C33.81 16.68 34.19 17.18 34.57 17.69 C37.93 22.14 41.21 26.64 44.44 31.19 C45.02 30.97 45.6 30.75 46.2 30.53 C50.76 28.9 54.52 27.81 59.44 28.19 C57.92 31.22 55.45 31.8 52.44 33.19 C51.45 33.52 50.46 33.85 49.44 34.19 C48.78 39.14 48.12 44.09 47.44 49.19 C43.12 44.87 43.35 41.16 42.44 35.19 C37.16 33.87 31.88 32.55 26.44 31.19 C26.44 33.17 26.44 35.15 26.44 37.19 C24.44 35.38 24.44 35.38 22.44 33.19 C22.44 32.2 22.44 31.21 22.44 30.19 C21.57 29.9 20.71 29.61 19.81 29.31 C17.61 28.58 15.42 27.79 13.25 26.94 C12.32 26.69 11.39 26.44 10.44 26.19 C9.45 26.85 8.46 27.51 7.44 28.19 C6.94 27.05 6.45 25.92 5.94 24.75 C4.17 21.16 2.04 18.49 -0.69 15.56 C-3.76 12.27 -5.64 9.71 -6.56 5.19 C-5.57 5.19 -4.58 5.19 -3.56 5.19 C-3.84 4.23 -3.84 4.23 -4.12 3.25 C-4.27 2.57 -4.41 1.89 -4.56 1.19 C-3.56 0.19 -3.56 0.19 0 0 Z M2.44 4.19 C2.11 4.85 1.78 5.51 1.44 6.19 C2.43 5.86 3.42 5.53 4.44 5.19 C3.78 4.86 3.12 4.53 2.44 4.19 Z " fill="#000000" transform="translate(709.5625,680.8125)"/>
<path d="M0 0 C3.84 1.56 6.1 4.1 9 7 C13.25 9.57 17.16 9.53 22 9 C27.27 7.18 29.73 4.32 33 0 C34.69 0.12 34.69 0.12 37 1 C38.23 2.49 39.47 3.99 40.67 5.5 C44.98 10.36 50.74 10.47 56.8 10.89 C57.53 10.92 58.25 10.96 59 11 C59.5 12.98 59.5 12.98 60 15 C55.43 18.05 51.25 17 46 16 C41.58 14.41 38.22 12.43 35 9 C32.45 10.22 30.15 11.54 27.75 13.06 C23.2 15.64 18.86 16.6 13.74 15.52 C8.75 13.98 4.43 11.73 0 9 C-0.7 9.6 -1.4 10.2 -2.12 10.81 C-7.99 15.28 -13.6 17.26 -21 17 C-23.3 16.01 -23.3 16.01 -25 15 C-24.39 13.06 -24.39 13.06 -23 11 C-20.17 10.31 -20.17 10.31 -16.75 10 C-9.89 9.13 -6.2 7.55 -1.62 2.25 C-1.09 1.51 -0.55 0.76 0 0 Z " fill="#000000" transform="translate(582,690)"/>
<path d="M0 0 C1.02 1.11 1.02 1.11 2.06 2.25 C6.39 6.51 10.44 9.21 16.56 9.44 C24.05 9.04 28.11 5.24 33 0 C33.99 0.33 34.98 0.66 36 1 C36.31 1.8 36.62 2.61 36.94 3.44 C38.23 6.56 38.98 6.71 42 8 C47.05 10 51.49 11.42 57 11 C57.99 12.98 57.99 12.98 59 15 C54.29 17.79 50.2 17.09 45 16 C40.61 14.38 37.21 12.43 34 9 C31.45 10.22 29.15 11.54 26.75 13.06 C22.2 15.64 17.86 16.6 12.74 15.52 C7.75 13.98 3.43 11.73 -1 9 C-1.74 9.61 -1.74 9.61 -2.5 10.24 C-8.91 15.33 -14.62 17.81 -23 17 C-24.94 15.5 -24.94 15.5 -26 14 C-25.34 13.01 -24.68 12.02 -24 11 C-21.64 10.63 -21.64 10.63 -18.81 10.56 C-13.36 10.2 -10.4 9.24 -6 6 C-3.72 3.43 -3.72 3.43 -2 1 C-1.34 0.67 -0.68 0.34 0 0 Z " fill="#000000" transform="translate(417,690)"/>
<path d="M0 0 C0.72 0.52 1.44 1.03 2.19 1.56 C5.59 3.3 6.37 2.79 10 2 C12.1 1.93 14.21 1.91 16.31 1.94 C17.92 1.95 17.92 1.95 19.55 1.96 C20.36 1.98 21.17 1.99 22 2 C23.09 5.82 23.27 7.46 21.44 11.06 C18.88 14.15 16.08 16.45 13 19 C11.16 21.65 11.16 21.65 10 24 C9.01 23.34 8.02 22.68 7 22 C4.73 22.49 4.73 22.49 2.44 23.62 C1.26 24.14 1.26 24.14 0.06 24.66 C-2.3 26.19 -2.99 27.42 -4 30 C-4.66 30 -5.32 30 -6 30 C-5.67 28.68 -5.34 27.36 -5 26 C-9.62 26.33 -14.24 26.66 -19 27 C-19.29 28.63 -19.58 30.26 -19.88 31.94 C-20.37 34.71 -20.37 34.71 -21 37 C-21.99 37.5 -21.99 37.5 -23 38 C-23.01 37.41 -23.03 36.82 -23.04 36.21 C-23.31 31.78 -23.48 29.61 -26.44 26.12 C-27.28 25.42 -28.13 24.72 -29 24 C-29.66 23.01 -30.32 22.02 -31 21 C-26.9 21.57 -23.93 22.43 -20 24 C-17.03 20.7 -14.06 17.4 -11 14 C-11.99 12.68 -12.98 11.36 -14 10 C-12.95 10.12 -11.9 10.25 -10.81 10.38 C-6.8 10.38 -6.8 10.38 -4.19 7.25 C-2.57 4.85 -1.12 2.65 0 0 Z M15 5 C16 7 16 7 16 7 Z " fill="#000000" transform="translate(116,714)"/>
<path d="M0 0 C0.66 0 1.32 0 2 0 C2.43 1.09 2.87 2.19 3.31 3.31 C4.93 7.23 4.93 7.23 8 10 C11.63 10.25 11.63 10.25 15 10 C13.02 10.99 13.02 10.99 11 12 C14.26 16.89 17.34 20.42 22 24 C22.91 23.48 23.82 22.97 24.75 22.44 C28 21 28 21 30.38 21.31 C30.91 21.54 31.45 21.77 32 22 C30.47 23.2 28.94 24.41 27.41 25.61 C25.46 27.53 25.03 29.35 24.9 32.04 C24.91 32.75 24.93 33.46 24.94 34.19 C24.96 35.45 24.98 36.7 25 38 C24.34 38 23.68 38 23 38 C22.01 34.7 21.02 31.4 20 28 C15.71 27.01 11.42 26.02 7 25 C7 26.65 7 28.3 7 30 C6.58 29.6 6.15 29.2 5.71 28.79 C1.67 25.14 -1.89 22.88 -7 21 C-7.33 21.99 -7.66 22.98 -8 24 C-10 23 -10 23 -11.31 20.69 C-12.86 17.89 -12.86 17.89 -15.44 16.06 C-18.46 13.63 -20.21 11.45 -22 8 C-21.75 4.62 -21.75 4.62 -21 2 C-9.84 1.84 -9.84 1.84 -5.44 2.69 C-4.23 2.84 -4.23 2.84 -3 3 C-1.23 1.65 -1.23 1.65 0 0 Z M-15 5 C-14 7 -14 7 -14 7 Z " fill="#000000" transform="translate(907,714)"/>
<path d="M0 0 C7.44 6.22 10.36 13.03 11.38 22.5 C10.5 30.67 8.41 37.56 2 43 C-5.69 48.22 -13.23 50.25 -22.49 48.54 C-29.58 46.71 -34.38 43.88 -38.5 37.77 C-42.76 30.14 -44.09 22.43 -42.06 13.88 C-39.75 7.32 -35.57 2.23 -29.68 -1.45 C-20.13 -5.83 -8.98 -5.6 0 0 Z M-28.31 12 C-31.3 17.3 -31.78 22.02 -31 28 C-29.27 32.45 -27.03 35.28 -23.12 38 C-18.03 39.63 -14.4 39.45 -9.31 37.81 C-4.82 35.35 -2.62 32.85 -1 28 C-0.25 21.34 -0.49 16.1 -4.52 10.59 C-7.83 7.03 -11.26 5.86 -16 5.62 C-21.52 5.88 -24.91 7.58 -28.31 12 Z " fill="#000000" transform="translate(628,769)"/>
<path d="M0 0 C13.53 0 27.06 0 41 0 C41 3.3 41 6.6 41 10 C36.38 10 31.76 10 27 10 C26.67 23.53 26.34 37.06 26 51 C22.37 51 18.74 51 15 51 C15 37.14 15 23.28 15 9 C14.01 9.5 14.01 9.5 13 10 C10.98 10.1 8.96 10.13 6.94 10.12 C5.31 10.13 5.31 10.13 3.65 10.13 C1 10 1 10 0 9 C0 6.03 0 3.06 0 0 Z " fill="#000000" transform="translate(275,766)"/>
<path d="M0 0 C3.63 0 7.26 0 11 0 C11.01 1 11.03 2.01 11.04 3.04 C11.1 6.78 11.18 10.52 11.26 14.25 C11.3 15.87 11.32 17.48 11.35 19.1 C11.38 21.42 11.43 23.75 11.49 26.07 C11.49 26.79 11.5 27.51 11.51 28.25 C11.64 32.65 12.33 35.47 15 39 C18.43 41.57 21.84 41.36 26 41 C29.35 39.83 29.35 39.83 32 38 C33.22 34.33 33.23 30.88 33.32 27.05 C33.34 26.28 33.36 25.51 33.38 24.71 C33.44 22.24 33.5 19.78 33.56 17.31 C33.61 15.64 33.65 13.97 33.69 12.29 C33.8 8.2 33.9 4.1 34 0 C37.96 0 41.92 0 46 0 C46.1 4.66 46.17 9.32 46.22 13.98 C46.24 15.56 46.27 17.14 46.3 18.72 C46.73 38.83 46.73 38.83 39.31 46.94 C31.83 51.6 24.3 53.33 15.61 51.5 C9.84 49.83 6.18 47.49 2.93 42.28 C0.15 37.15 -0.55 33.13 -0.39 27.34 C-0.38 26.56 -0.38 25.77 -0.37 24.96 C-0.35 22.47 -0.3 19.99 -0.25 17.5 C-0.23 15.8 -0.21 14.1 -0.2 12.41 C-0.15 8.27 -0.08 4.14 0 0 Z " fill="#000000" transform="translate(333,766)"/>
<path d="M0 0 C12 0 12 0 15.23 2.79 C16.07 4.04 16.87 5.32 17.62 6.62 C18.52 8 19.41 9.37 20.31 10.74 C20.75 11.44 21.19 12.15 21.64 12.87 C23.83 16.3 26.27 19.54 28.69 22.81 C33 28.69 33 28.69 33 31 C33.66 31 34.32 31 35 31 C34.89 30.03 34.89 30.03 34.78 29.04 C33.83 19.36 33.91 9.72 34 0 C37.96 0 41.92 0 46 0 C46 16.83 46 33.66 46 51 C35 51 35 51 32.41 49.26 C31.82 48.41 31.23 47.56 30.62 46.69 C29.92 45.7 29.21 44.72 28.48 43.71 C27.65 42.47 26.82 41.24 26 40 C24.86 38.36 23.73 36.71 22.59 35.07 C19.74 30.97 16.94 26.83 14.16 22.68 C13.11 21.05 13.11 21.05 12 20 C11.67 30.23 11.34 40.46 11 51 C7.37 51 3.74 51 0 51 C0 34.17 0 17.34 0 0 Z " fill="#000000" transform="translate(399,766)"/>
<path d="M0 0 C4.62 0 9.24 0 14 0 C18.54 11.17 22.96 22.39 27.25 33.66 C27.75 34.97 28.25 36.28 28.75 37.59 C29.46 39.45 30.17 41.31 30.88 43.16 C31.28 44.24 31.69 45.32 32.12 46.43 C33 49 33 49 33 51 C29.04 51 25.08 51 21 51 C20.57 49.87 20.13 48.73 19.69 47.56 C18.85 45.8 18.85 45.8 18 44 C15.27 43.09 13.38 42.82 10.55 42.68 C9.7 42.64 8.86 42.6 7.98 42.56 C6.66 42.5 6.66 42.5 5.31 42.44 C4.42 42.39 3.53 42.35 2.61 42.31 C0.41 42.2 -1.8 42.1 -4 42 C-4.99 44.97 -5.98 47.94 -7 51 C-10.96 51 -14.92 51 -19 51 C-18.36 45.48 -16.51 40.71 -14.47 35.59 C-14.12 34.69 -13.77 33.8 -13.42 32.88 C-12.68 31 -11.94 29.13 -11.2 27.25 C-10.06 24.38 -8.94 21.51 -7.81 18.63 C-7.1 16.8 -6.38 14.98 -5.66 13.15 C-5.32 12.29 -4.99 11.43 -4.64 10.55 C-4.32 9.75 -4.01 8.95 -3.68 8.12 C-3.4 7.42 -3.13 6.72 -2.84 6 C-1.98 3.96 -0.99 1.98 0 0 Z M6 11 C4.83 14.29 3.66 17.58 2.5 20.88 C2 22.28 2 22.28 1.49 23.71 C1.17 24.61 0.86 25.51 0.53 26.43 C0.24 27.26 -0.06 28.08 -0.36 28.94 C-1.1 30.96 -1.1 30.96 -1 33 C4.28 33 9.56 33 15 33 C13.88 29.71 12.76 26.41 11.62 23.12 C11.31 22.19 10.99 21.25 10.66 20.29 C10.35 19.39 10.05 18.49 9.73 17.57 C9.44 16.74 9.16 15.92 8.87 15.06 C8.08 12.83 8.08 12.83 6 11 Z " fill="#000000" transform="translate(479,766)"/>
<path d="M0 0 C5.14 -0.08 10.27 -0.16 15.56 -0.25 C17.17 -0.29 18.78 -0.32 20.43 -0.36 C21.71 -0.37 23 -0.38 24.32 -0.39 C25.62 -0.41 26.92 -0.43 28.27 -0.45 C32.92 0.11 35.16 1.34 39 4 C41.3 7.81 42.01 10.17 41.94 14.62 C40.66 19.22 38.3 21.7 35 25 C35.95 25.72 36.9 26.44 37.88 27.19 C40.69 29.56 42.21 31.3 43 35 C42.8 40.42 41.55 43.89 38 48 C32.96 50.62 29.3 51.36 23.54 51.29 C22.29 51.29 21.05 51.28 19.77 51.27 C17.44 51.23 17.44 51.23 15.06 51.19 C10.09 51.13 5.12 51.06 0 51 C0 34.17 0 17.34 0 0 Z M11 9 C11 12.63 11 16.26 11 20 C13.6 20.08 16.21 20.14 18.81 20.19 C19.55 20.21 20.29 20.24 21.05 20.26 C25.26 20.35 25.26 20.35 29.02 18.68 C30.26 16.88 30.26 16.88 29.94 13.94 C29.31 10.99 29.31 10.99 27.39 9.82 C24.11 8.69 21.21 8.81 17.75 8.88 C16.49 8.89 15.22 8.91 13.92 8.93 C12.96 8.95 11.99 8.98 11 9 Z M11 30 C11 33.63 11 37.26 11 41 C13.77 41.08 16.54 41.14 19.31 41.19 C20.49 41.23 20.49 41.23 21.69 41.26 C22.45 41.27 23.21 41.28 23.99 41.29 C24.68 41.31 25.38 41.32 26.1 41.34 C28.61 40.89 29.47 40.01 31 38 C31.5 34.96 31.5 34.96 31 32 C27.95 29.97 27.4 29.75 23.99 29.8 C23.23 29.81 22.47 29.82 21.69 29.82 C20.91 29.84 20.12 29.86 19.31 29.88 C18.52 29.88 17.72 29.89 16.9 29.9 C14.93 29.93 12.97 29.96 11 30 Z " fill="#000000" transform="translate(527,766)"/>
<path d="M0 0 C4.62 0 9.24 0 14 0 C16.23 5.82 18.45 11.63 20.67 17.45 C21.43 19.43 22.18 21.4 22.94 23.38 C24.03 26.23 25.12 29.08 26.21 31.93 C26.54 32.81 26.88 33.68 27.22 34.58 C29.29 40.01 31.2 45.47 33 51 C28.71 51 24.42 51 20 51 C19.01 48.36 18.02 45.72 17 43 C10.07 43 3.14 43 -4 43 C-4.99 45.64 -5.98 48.28 -7 51 C-11.29 51 -15.58 51 -20 51 C-17.43 42.97 -14.45 35.11 -11.44 27.23 C-10.56 24.94 -9.69 22.65 -8.83 20.35 C-8.26 18.87 -7.7 17.38 -7.13 15.9 C-6.87 15.23 -6.62 14.55 -6.36 13.86 C-4.52 9.08 -2.34 4.56 0 0 Z M6 11 C4.83 14.1 3.66 17.21 2.5 20.31 C2.17 21.19 1.83 22.07 1.49 22.98 C1.17 23.83 0.86 24.68 0.53 25.55 C0.24 26.33 -0.06 27.11 -0.36 27.92 C-1.15 30.11 -1.15 30.11 -1 33 C3.95 33 8.9 33 14 33 C12.05 25.49 9.76 18.25 7 11 C6.67 11 6.34 11 6 11 Z " fill="#000000" transform="translate(669,766)"/>
<path d="M0 0 C13.53 0 27.06 0 41 0 C41 2.97 41 5.94 41 9 C40.01 9.16 39.02 9.33 38 9.5 C37.44 9.59 36.89 9.69 36.31 9.78 C32.89 10.11 29.44 10 26 10 C26 23.53 26 37.06 26 51 C22.37 51 18.74 51 15 51 C14.67 37.47 14.34 23.94 14 10 C9.71 10 5.42 10 1 10 C0.67 9.67 0.34 9.34 0 9 C0 6.03 0 3.06 0 0 Z " fill="#000000" transform="translate(709,766)"/>
<path d="M0 0 C0.5 1.98 0.5 1.98 1 4 C1.66 3.67 2.32 3.34 3 3 C1.46 9.34 -0.81 13.29 -5.28 18 C-7.91 21.05 -9.37 24.34 -11 28 C-11.64 27.57 -12.28 27.13 -12.94 26.69 C-17.23 25.72 -19.31 27.21 -22.98 29.42 C-25.69 31.54 -26.78 33.83 -28 37 C-28.99 37.5 -28.99 37.5 -30 38 C-29.67 36.02 -29.34 34.04 -29 32 C-34.61 33.32 -40.22 34.64 -46 36 C-46.29 38.12 -46.58 40.25 -46.88 42.44 C-47.37 46.06 -47.37 46.06 -48 49 C-48.99 49.5 -48.99 49.5 -50 50 C-50.11 49.13 -50.22 48.26 -50.34 47.37 C-51.38 40.45 -51.38 40.45 -55.2 34.84 C-57.42 33.42 -59.66 32.2 -62 31 C-62 30.67 -62 30.34 -62 30 C-56.73 30.45 -51.98 31.08 -47 33 C-47 32.01 -47 31.02 -47 30 C-45.69 28.64 -44.35 27.31 -43 26 C-39.42 21.93 -39.42 21.93 -38 17 C-39.65 16.34 -41.3 15.68 -43 15 C-43 14.67 -43 14.34 -43 14 C-39.7 14 -36.4 14 -33 14 C-32.73 13.26 -32.46 12.51 -32.19 11.75 C-31 9 -31 9 -29.44 6.94 C-27.94 4.92 -27.44 3.45 -27 1 C-24.24 1.52 -21.67 2.11 -19 3 C-16.5 2.46 -16.5 2.46 -13.81 1.56 C-8.97 0.15 -5.02 -0.28 0 0 Z M-7 4 C-7.33 4.66 -7.66 5.32 -8 6 C-7.34 6 -6.68 6 -6 6 C-6.33 5.34 -6.66 4.68 -7 4 Z " fill="#000000" transform="translate(157,773)"/>
<path d="M0 0 C5.38 -0.26 9.49 0.02 14.62 1.69 C18.38 2.83 20.55 3.27 24.19 1.69 C25.58 0.85 25.58 0.85 27 0 C27.25 0.6 27.51 1.21 27.77 1.83 C30.09 7.99 30.09 7.99 34 13 C36.99 13.62 39.95 13.87 43 14 C41 16 41 16 38 18 C38.51 18.7 39.01 19.4 39.53 20.12 C40.18 21.03 40.83 21.94 41.5 22.88 C42.47 24.23 42.47 24.23 43.47 25.62 C45 28 45 28 45 30 C45.66 30 46.32 30 47 30 C47.5 30.99 47.5 30.99 48 32 C49.18 31.67 50.35 31.34 51.56 31 C55.5 30 58.95 29.83 63 30 C60.66 31.8 58.3 33.46 55.81 35.06 C52.95 36.7 52.95 36.7 52 39 C51.73 41.85 51.55 44.71 51.38 47.57 C51.19 48.77 51.19 48.77 51 50 C50.01 50.5 50.01 50.5 49 51 C47.08 46.02 46.45 41.27 46 36 C45.13 35.82 45.13 35.82 44.24 35.63 C39.72 34.66 35.36 33.57 31 32 C30.67 33.98 30.34 35.96 30 38 C28.09 36.27 26.94 34.88 25.75 32.56 C23.6 29.42 21.8 28.62 18.31 27.19 C17.32 26.77 16.32 26.35 15.3 25.92 C14.16 25.46 14.16 25.46 13 25 C12.67 25.99 12.34 26.98 12 28 C10 25 10 25 8.69 22.12 C7.15 18.91 7.15 18.91 4.56 16.56 C1.5 13.5 -0.15 10.92 -2 7 C-1.75 4.56 -1.75 4.56 -1 3 C-0.34 3.33 0.32 3.66 1 4 C0.67 2.68 0.34 1.36 0 0 Z M6 4 C6.33 4.99 6.66 5.98 7 7 C7 6.01 7 5.02 7 4 C6.67 4 6.34 4 6 4 Z " fill="#000000" transform="translate(867,773)"/>
</svg>
